<mxfile host="Electron" agent="Mozilla/5.0 (Windows NT 10.0; Win64; x64) AppleWebKit/537.36 (KHTML, like Gecko) draw.io/24.7.17 Chrome/128.0.6613.36 Electron/32.0.1 Safari/537.36" version="24.7.17">
  <diagram name="ページ1" id="kCZ1K9Wbg2DakUKIsbAN">
    <mxGraphModel dx="989" dy="610" grid="1" gridSize="10" guides="1" tooltips="1" connect="1" arrows="1" fold="1" page="1" pageScale="1" pageWidth="827" pageHeight="1169" math="0" shadow="0">
      <root>
        <mxCell id="0" />
        <mxCell id="1" parent="0" />
        <mxCell id="Q2xhgx171ck7sQDFLJzE-88" value="" style="rounded=0;whiteSpace=wrap;html=1;fillColor=none;strokeColor=none;" parent="1" vertex="1">
          <mxGeometry x="110" y="200" width="480" height="480" as="geometry" />
        </mxCell>
        <mxCell id="Q2xhgx171ck7sQDFLJzE-92" value="a[16]" style="text;html=1;align=center;verticalAlign=middle;whiteSpace=wrap;rounded=0;" parent="1" vertex="1">
          <mxGeometry x="128" y="250" width="40" height="20" as="geometry" />
        </mxCell>
        <mxCell id="Q2xhgx171ck7sQDFLJzE-94" value="out1[16]" style="text;html=1;align=center;verticalAlign=middle;whiteSpace=wrap;rounded=0;" parent="1" vertex="1">
          <mxGeometry x="364" y="270" width="50" height="30" as="geometry" />
        </mxCell>
        <mxCell id="Q2xhgx171ck7sQDFLJzE-126" value="" style="group" parent="1" vertex="1" connectable="0">
          <mxGeometry x="456" y="350" width="134" height="277" as="geometry" />
        </mxCell>
        <mxCell id="Q2xhgx171ck7sQDFLJzE-124" value="" style="endArrow=none;html=1;rounded=0;entryX=1;entryY=0.5;entryDx=0;entryDy=-5;entryPerimeter=0;" parent="Q2xhgx171ck7sQDFLJzE-126" target="Q2xhgx171ck7sQDFLJzE-127" edge="1">
          <mxGeometry width="50" height="50" relative="1" as="geometry">
            <mxPoint x="100" y="56" as="sourcePoint" />
            <mxPoint x="69.99999999999989" y="55.860000000000014" as="targetPoint" />
          </mxGeometry>
        </mxCell>
        <mxCell id="Q2xhgx171ck7sQDFLJzE-125" value="out[16]" style="text;html=1;align=center;verticalAlign=middle;whiteSpace=wrap;rounded=0;" parent="Q2xhgx171ck7sQDFLJzE-126" vertex="1">
          <mxGeometry x="74" y="21" width="50" height="30" as="geometry" />
        </mxCell>
        <mxCell id="Q2xhgx171ck7sQDFLJzE-127" value="Mux" style="shadow=0;dashed=0;align=center;html=1;strokeWidth=1;shape=mxgraph.electrical.abstract.mux2;whiteSpace=wrap;" parent="Q2xhgx171ck7sQDFLJzE-126" vertex="1">
          <mxGeometry x="-20" y="1" width="80" height="120" as="geometry" />
        </mxCell>
        <mxCell id="Q2xhgx171ck7sQDFLJzE-128" value="Mux16" style="text;html=1;align=center;verticalAlign=middle;whiteSpace=wrap;rounded=0;fillColor=default;" parent="Q2xhgx171ck7sQDFLJzE-126" vertex="1">
          <mxGeometry x="-5" y="41" width="50" height="30" as="geometry" />
        </mxCell>
        <mxCell id="Q2xhgx171ck7sQDFLJzE-129" value="sel" style="text;html=1;align=center;verticalAlign=middle;whiteSpace=wrap;rounded=0;fontSize=7;fillColor=default;" parent="Q2xhgx171ck7sQDFLJzE-126" vertex="1">
          <mxGeometry x="21" y="111" width="15" height="10" as="geometry" />
        </mxCell>
        <mxCell id="Q2xhgx171ck7sQDFLJzE-130" value="" style="endArrow=none;html=1;rounded=0;entryX=0.375;entryY=1;entryDx=10;entryDy=0;entryPerimeter=0;" parent="Q2xhgx171ck7sQDFLJzE-126" target="Q2xhgx171ck7sQDFLJzE-127" edge="1">
          <mxGeometry width="50" height="50" relative="1" as="geometry">
            <mxPoint x="20" y="300" as="sourcePoint" />
            <mxPoint x="100" y="130" as="targetPoint" />
            <Array as="points">
              <mxPoint x="20" y="130" />
            </Array>
          </mxGeometry>
        </mxCell>
        <mxCell id="rzP1MXf0zQkx-IqMkT_r-17" value="" style="group" vertex="1" connectable="0" parent="1">
          <mxGeometry x="250" y="219" width="110" height="171" as="geometry" />
        </mxCell>
        <mxCell id="Q2xhgx171ck7sQDFLJzE-110" value="" style="group" parent="rzP1MXf0zQkx-IqMkT_r-17" vertex="1" connectable="0">
          <mxGeometry width="110.00000000000001" height="171" as="geometry" />
        </mxCell>
        <mxCell id="Q2xhgx171ck7sQDFLJzE-95" value="Mux" style="shadow=0;dashed=0;align=center;html=1;strokeWidth=1;shape=mxgraph.electrical.abstract.mux2;whiteSpace=wrap;" parent="Q2xhgx171ck7sQDFLJzE-110" vertex="1">
          <mxGeometry width="110.00000000000001" height="167.8719512195122" as="geometry" />
        </mxCell>
        <mxCell id="Q2xhgx171ck7sQDFLJzE-107" value="Mux4Way16" style="text;html=1;align=center;verticalAlign=middle;whiteSpace=wrap;rounded=0;fillColor=default;fontSize=11;" parent="Q2xhgx171ck7sQDFLJzE-110" vertex="1">
          <mxGeometry x="22.825000000000003" y="55.95731707317073" width="68.75" height="41.96798780487805" as="geometry" />
        </mxCell>
        <mxCell id="Q2xhgx171ck7sQDFLJzE-109" value="sel0" style="text;html=1;align=center;verticalAlign=middle;whiteSpace=wrap;rounded=0;fontSize=7;fillColor=default;" parent="Q2xhgx171ck7sQDFLJzE-110" vertex="1">
          <mxGeometry x="56.1" y="154.32" width="14.3" height="15.68" as="geometry" />
        </mxCell>
        <mxCell id="rzP1MXf0zQkx-IqMkT_r-1" value="" style="endArrow=none;html=1;rounded=0;" edge="1" parent="Q2xhgx171ck7sQDFLJzE-110">
          <mxGeometry width="50" height="50" relative="1" as="geometry">
            <mxPoint x="-78" y="68" as="sourcePoint" />
            <mxPoint x="10" y="68" as="targetPoint" />
          </mxGeometry>
        </mxCell>
        <mxCell id="rzP1MXf0zQkx-IqMkT_r-5" value="0" style="text;html=1;align=center;verticalAlign=middle;whiteSpace=wrap;rounded=0;fontSize=7;fillColor=default;labelBackgroundColor=default;" vertex="1" parent="Q2xhgx171ck7sQDFLJzE-110">
          <mxGeometry x="14.125000000000002" y="37.53658536585366" height="8.341463414634147" as="geometry" />
        </mxCell>
        <mxCell id="rzP1MXf0zQkx-IqMkT_r-9" value="1" style="text;html=1;align=center;verticalAlign=middle;whiteSpace=wrap;rounded=0;fontSize=7;fillColor=default;labelBackgroundColor=default;" vertex="1" parent="Q2xhgx171ck7sQDFLJzE-110">
          <mxGeometry x="15.125000000000002" y="64.64634146341464" height="8.341463414634147" as="geometry" />
        </mxCell>
        <mxCell id="rzP1MXf0zQkx-IqMkT_r-13" value="2" style="text;html=1;align=center;verticalAlign=middle;whiteSpace=wrap;rounded=0;fontSize=7;fillColor=default;labelBackgroundColor=default;" vertex="1" parent="Q2xhgx171ck7sQDFLJzE-110">
          <mxGeometry x="14.125000000000002" y="88.54463414634148" height="8.341463414634147" as="geometry" />
        </mxCell>
        <mxCell id="rzP1MXf0zQkx-IqMkT_r-14" value="3" style="text;html=1;align=center;verticalAlign=middle;whiteSpace=wrap;rounded=0;fontSize=7;fillColor=default;labelBackgroundColor=default;" vertex="1" parent="Q2xhgx171ck7sQDFLJzE-110">
          <mxGeometry x="15.125000000000002" y="113.65243902439025" height="8.341463414634147" as="geometry" />
        </mxCell>
        <mxCell id="rzP1MXf0zQkx-IqMkT_r-16" value="sel1" style="text;html=1;align=center;verticalAlign=middle;whiteSpace=wrap;rounded=0;fontSize=7;fillColor=default;" vertex="1" parent="Q2xhgx171ck7sQDFLJzE-110">
          <mxGeometry x="79.705" y="154.3170731707317" width="14.3" height="14.597560975609756" as="geometry" />
        </mxCell>
        <mxCell id="rzP1MXf0zQkx-IqMkT_r-11" value="1" style="text;html=1;align=center;verticalAlign=middle;whiteSpace=wrap;rounded=0;fontSize=7;fillColor=default;labelBackgroundColor=default;" vertex="1" parent="rzP1MXf0zQkx-IqMkT_r-17">
          <mxGeometry x="14.125000000000002" y="64.64634146341464" height="8.341463414634147" as="geometry" />
        </mxCell>
        <mxCell id="rzP1MXf0zQkx-IqMkT_r-3" value="" style="endArrow=none;html=1;rounded=0;" edge="1" parent="1">
          <mxGeometry width="50" height="50" relative="1" as="geometry">
            <mxPoint x="172" y="310.7560975609756" as="sourcePoint" />
            <mxPoint x="260" y="310.7560975609756" as="targetPoint" />
          </mxGeometry>
        </mxCell>
        <mxCell id="rzP1MXf0zQkx-IqMkT_r-26" value="" style="endArrow=none;html=1;rounded=0;" edge="1" parent="1">
          <mxGeometry width="50" height="50" relative="1" as="geometry">
            <mxPoint x="172" y="259.95" as="sourcePoint" />
            <mxPoint x="260" y="259.95" as="targetPoint" />
          </mxGeometry>
        </mxCell>
        <mxCell id="rzP1MXf0zQkx-IqMkT_r-28" value="" style="endArrow=none;html=1;rounded=0;" edge="1" parent="1">
          <mxGeometry width="50" height="50" relative="1" as="geometry">
            <mxPoint x="172" y="335.9" as="sourcePoint" />
            <mxPoint x="260" y="335.9" as="targetPoint" />
          </mxGeometry>
        </mxCell>
        <mxCell id="rzP1MXf0zQkx-IqMkT_r-29" value="" style="endArrow=none;html=1;rounded=0;entryX=0;entryY=0.21666666666666667;entryDx=0;entryDy=3;entryPerimeter=0;" edge="1" parent="1" target="Q2xhgx171ck7sQDFLJzE-127">
          <mxGeometry width="50" height="50" relative="1" as="geometry">
            <mxPoint x="356" y="297.93" as="sourcePoint" />
            <mxPoint x="396" y="297.93" as="targetPoint" />
            <Array as="points">
              <mxPoint x="400" y="298" />
              <mxPoint x="400" y="380" />
            </Array>
          </mxGeometry>
        </mxCell>
        <mxCell id="rzP1MXf0zQkx-IqMkT_r-31" value="b[16]" style="text;html=1;align=center;verticalAlign=middle;whiteSpace=wrap;rounded=0;" vertex="1" parent="1">
          <mxGeometry x="128" y="276" width="40" height="20" as="geometry" />
        </mxCell>
        <mxCell id="rzP1MXf0zQkx-IqMkT_r-32" value="c[16]" style="text;html=1;align=center;verticalAlign=middle;whiteSpace=wrap;rounded=0;" vertex="1" parent="1">
          <mxGeometry x="128" y="301" width="40" height="20" as="geometry" />
        </mxCell>
        <mxCell id="rzP1MXf0zQkx-IqMkT_r-33" value="d[16]" style="text;html=1;align=center;verticalAlign=middle;whiteSpace=wrap;rounded=0;" vertex="1" parent="1">
          <mxGeometry x="128" y="326" width="40" height="20" as="geometry" />
        </mxCell>
        <mxCell id="rzP1MXf0zQkx-IqMkT_r-55" value="e[16]" style="text;html=1;align=center;verticalAlign=middle;whiteSpace=wrap;rounded=0;" vertex="1" parent="1">
          <mxGeometry x="128" y="471" width="40" height="20" as="geometry" />
        </mxCell>
        <mxCell id="rzP1MXf0zQkx-IqMkT_r-56" value="" style="group" vertex="1" connectable="0" parent="1">
          <mxGeometry x="250" y="440" width="110" height="171" as="geometry" />
        </mxCell>
        <mxCell id="rzP1MXf0zQkx-IqMkT_r-57" value="" style="group" vertex="1" connectable="0" parent="rzP1MXf0zQkx-IqMkT_r-56">
          <mxGeometry width="110.00000000000001" height="171" as="geometry" />
        </mxCell>
        <mxCell id="rzP1MXf0zQkx-IqMkT_r-58" value="Mux" style="shadow=0;dashed=0;align=center;html=1;strokeWidth=1;shape=mxgraph.electrical.abstract.mux2;whiteSpace=wrap;" vertex="1" parent="rzP1MXf0zQkx-IqMkT_r-57">
          <mxGeometry width="110.00000000000001" height="167.8719512195122" as="geometry" />
        </mxCell>
        <mxCell id="rzP1MXf0zQkx-IqMkT_r-59" value="Mux4Way16" style="text;html=1;align=center;verticalAlign=middle;whiteSpace=wrap;rounded=0;fillColor=default;fontSize=11;" vertex="1" parent="rzP1MXf0zQkx-IqMkT_r-57">
          <mxGeometry x="22.825000000000003" y="55.95731707317073" width="68.75" height="41.96798780487805" as="geometry" />
        </mxCell>
        <mxCell id="rzP1MXf0zQkx-IqMkT_r-60" value="sel0" style="text;html=1;align=center;verticalAlign=middle;whiteSpace=wrap;rounded=0;fontSize=7;fillColor=default;" vertex="1" parent="rzP1MXf0zQkx-IqMkT_r-57">
          <mxGeometry x="56.1" y="154.32" width="14.3" height="15.68" as="geometry" />
        </mxCell>
        <mxCell id="rzP1MXf0zQkx-IqMkT_r-61" value="" style="endArrow=none;html=1;rounded=0;" edge="1" parent="rzP1MXf0zQkx-IqMkT_r-57">
          <mxGeometry width="50" height="50" relative="1" as="geometry">
            <mxPoint x="-78" y="68" as="sourcePoint" />
            <mxPoint x="10" y="68" as="targetPoint" />
          </mxGeometry>
        </mxCell>
        <mxCell id="rzP1MXf0zQkx-IqMkT_r-62" value="0" style="text;html=1;align=center;verticalAlign=middle;whiteSpace=wrap;rounded=0;fontSize=7;fillColor=default;labelBackgroundColor=default;" vertex="1" parent="rzP1MXf0zQkx-IqMkT_r-57">
          <mxGeometry x="14.125000000000002" y="37.53658536585366" height="8.341463414634147" as="geometry" />
        </mxCell>
        <mxCell id="rzP1MXf0zQkx-IqMkT_r-63" value="1" style="text;html=1;align=center;verticalAlign=middle;whiteSpace=wrap;rounded=0;fontSize=7;fillColor=default;labelBackgroundColor=default;" vertex="1" parent="rzP1MXf0zQkx-IqMkT_r-57">
          <mxGeometry x="15.125000000000002" y="64.64634146341464" height="8.341463414634147" as="geometry" />
        </mxCell>
        <mxCell id="rzP1MXf0zQkx-IqMkT_r-64" value="2" style="text;html=1;align=center;verticalAlign=middle;whiteSpace=wrap;rounded=0;fontSize=7;fillColor=default;labelBackgroundColor=default;" vertex="1" parent="rzP1MXf0zQkx-IqMkT_r-57">
          <mxGeometry x="14.125000000000002" y="88.54463414634148" height="8.341463414634147" as="geometry" />
        </mxCell>
        <mxCell id="rzP1MXf0zQkx-IqMkT_r-65" value="3" style="text;html=1;align=center;verticalAlign=middle;whiteSpace=wrap;rounded=0;fontSize=7;fillColor=default;labelBackgroundColor=default;" vertex="1" parent="rzP1MXf0zQkx-IqMkT_r-57">
          <mxGeometry x="15.125000000000002" y="113.65243902439025" height="8.341463414634147" as="geometry" />
        </mxCell>
        <mxCell id="rzP1MXf0zQkx-IqMkT_r-67" value="sel1" style="text;html=1;align=center;verticalAlign=middle;whiteSpace=wrap;rounded=0;fontSize=7;fillColor=default;" vertex="1" parent="rzP1MXf0zQkx-IqMkT_r-57">
          <mxGeometry x="80.705" y="154.3170731707317" width="14.3" height="14.597560975609756" as="geometry" />
        </mxCell>
        <mxCell id="rzP1MXf0zQkx-IqMkT_r-68" value="1" style="text;html=1;align=center;verticalAlign=middle;whiteSpace=wrap;rounded=0;fontSize=7;fillColor=default;labelBackgroundColor=default;" vertex="1" parent="rzP1MXf0zQkx-IqMkT_r-56">
          <mxGeometry x="14.125000000000002" y="64.64634146341464" height="8.341463414634147" as="geometry" />
        </mxCell>
        <mxCell id="rzP1MXf0zQkx-IqMkT_r-69" value="" style="endArrow=none;html=1;rounded=0;" edge="1" parent="1">
          <mxGeometry width="50" height="50" relative="1" as="geometry">
            <mxPoint x="172" y="531.7560975609756" as="sourcePoint" />
            <mxPoint x="260" y="531.7560975609756" as="targetPoint" />
          </mxGeometry>
        </mxCell>
        <mxCell id="rzP1MXf0zQkx-IqMkT_r-70" value="" style="endArrow=none;html=1;rounded=0;" edge="1" parent="1">
          <mxGeometry width="50" height="50" relative="1" as="geometry">
            <mxPoint x="172" y="480.95" as="sourcePoint" />
            <mxPoint x="260" y="480.95" as="targetPoint" />
          </mxGeometry>
        </mxCell>
        <mxCell id="rzP1MXf0zQkx-IqMkT_r-71" value="" style="endArrow=none;html=1;rounded=0;" edge="1" parent="1">
          <mxGeometry width="50" height="50" relative="1" as="geometry">
            <mxPoint x="172" y="556.9" as="sourcePoint" />
            <mxPoint x="260" y="556.9" as="targetPoint" />
          </mxGeometry>
        </mxCell>
        <mxCell id="rzP1MXf0zQkx-IqMkT_r-72" value="" style="endArrow=none;html=1;rounded=0;entryX=0;entryY=0.65;entryDx=0;entryDy=3;entryPerimeter=0;" edge="1" parent="1" target="Q2xhgx171ck7sQDFLJzE-127">
          <mxGeometry width="50" height="50" relative="1" as="geometry">
            <mxPoint x="356" y="518.9300000000001" as="sourcePoint" />
            <mxPoint x="396" y="518.9300000000001" as="targetPoint" />
            <Array as="points">
              <mxPoint x="400" y="519" />
              <mxPoint x="400" y="432" />
            </Array>
          </mxGeometry>
        </mxCell>
        <mxCell id="rzP1MXf0zQkx-IqMkT_r-73" value="f[16]" style="text;html=1;align=center;verticalAlign=middle;whiteSpace=wrap;rounded=0;" vertex="1" parent="1">
          <mxGeometry x="128" y="497" width="40" height="20" as="geometry" />
        </mxCell>
        <mxCell id="rzP1MXf0zQkx-IqMkT_r-74" value="g[16]" style="text;html=1;align=center;verticalAlign=middle;whiteSpace=wrap;rounded=0;" vertex="1" parent="1">
          <mxGeometry x="128" y="522" width="40" height="20" as="geometry" />
        </mxCell>
        <mxCell id="rzP1MXf0zQkx-IqMkT_r-75" value="h[16]" style="text;html=1;align=center;verticalAlign=middle;whiteSpace=wrap;rounded=0;" vertex="1" parent="1">
          <mxGeometry x="128" y="547" width="40" height="20" as="geometry" />
        </mxCell>
        <mxCell id="rzP1MXf0zQkx-IqMkT_r-76" value="" style="endArrow=none;html=1;rounded=0;entryX=0.4090909090909091;entryY=1;entryDx=10;entryDy=0;entryPerimeter=0;" edge="1" parent="1" target="Q2xhgx171ck7sQDFLJzE-95">
          <mxGeometry width="50" height="50" relative="1" as="geometry">
            <mxPoint x="210" y="650" as="sourcePoint" />
            <mxPoint x="300" y="390" as="targetPoint" />
            <Array as="points">
              <mxPoint x="210" y="390" />
              <mxPoint x="305" y="390" />
            </Array>
          </mxGeometry>
        </mxCell>
        <mxCell id="rzP1MXf0zQkx-IqMkT_r-77" value="" style="endArrow=none;html=1;rounded=0;entryX=0.718;entryY=0.864;entryDx=0;entryDy=0;entryPerimeter=0;" edge="1" parent="1" target="Q2xhgx171ck7sQDFLJzE-95">
          <mxGeometry width="50" height="50" relative="1" as="geometry">
            <mxPoint x="230" y="650" as="sourcePoint" />
            <mxPoint x="329" y="370" as="targetPoint" />
            <Array as="points">
              <mxPoint x="230" y="410" />
              <mxPoint x="329" y="410" />
            </Array>
          </mxGeometry>
        </mxCell>
        <mxCell id="rzP1MXf0zQkx-IqMkT_r-78" value="" style="endArrow=none;html=1;rounded=0;entryX=0.5;entryY=0.998;entryDx=0;entryDy=0;entryPerimeter=0;" edge="1" parent="1" target="rzP1MXf0zQkx-IqMkT_r-58">
          <mxGeometry width="50" height="50" relative="1" as="geometry">
            <mxPoint x="210" y="610" as="sourcePoint" />
            <mxPoint x="305" y="610" as="targetPoint" />
            <Array as="points">
              <mxPoint x="305" y="610" />
            </Array>
          </mxGeometry>
        </mxCell>
        <mxCell id="rzP1MXf0zQkx-IqMkT_r-79" value="" style="endArrow=none;html=1;rounded=0;entryX=0.725;entryY=0.864;entryDx=0;entryDy=0;entryPerimeter=0;" edge="1" parent="1" target="rzP1MXf0zQkx-IqMkT_r-58">
          <mxGeometry width="50" height="50" relative="1" as="geometry">
            <mxPoint x="230" y="630" as="sourcePoint" />
            <mxPoint x="329" y="618" as="targetPoint" />
            <Array as="points">
              <mxPoint x="330" y="630" />
            </Array>
          </mxGeometry>
        </mxCell>
        <mxCell id="rzP1MXf0zQkx-IqMkT_r-83" value="sel[0]" style="text;html=1;align=center;verticalAlign=middle;whiteSpace=wrap;rounded=0;" vertex="1" parent="1">
          <mxGeometry x="187" y="650" width="30" height="20" as="geometry" />
        </mxCell>
        <mxCell id="rzP1MXf0zQkx-IqMkT_r-84" value="sel[1]" style="text;html=1;align=center;verticalAlign=middle;whiteSpace=wrap;rounded=0;" vertex="1" parent="1">
          <mxGeometry x="225" y="650" width="30" height="20" as="geometry" />
        </mxCell>
        <mxCell id="rzP1MXf0zQkx-IqMkT_r-85" value="sel[2]" style="text;html=1;align=center;verticalAlign=middle;whiteSpace=wrap;rounded=0;" vertex="1" parent="1">
          <mxGeometry x="459" y="650" width="30" height="20" as="geometry" />
        </mxCell>
        <mxCell id="rzP1MXf0zQkx-IqMkT_r-87" value="out2[16]" style="text;html=1;align=center;verticalAlign=middle;whiteSpace=wrap;rounded=0;" vertex="1" parent="1">
          <mxGeometry x="364" y="520" width="50" height="30" as="geometry" />
        </mxCell>
      </root>
    </mxGraphModel>
  </diagram>
</mxfile>
